<?xml version="1.0" standalone="no"?>
<!DOCTYPE svg PUBLIC "-//W3C//DTD SVG 20010904//EN"
 "http://www.w3.org/TR/2001/REC-SVG-20010904/DTD/svg10.dtd">
<svg version="1.0" xmlns="http://www.w3.org/2000/svg"
 width="96.000000pt" height="96.000000pt" viewBox="0 0 96.000000 96.000000"
 preserveAspectRatio="xMidYMid meet">

<g transform="translate(0.000000,96.000000) scale(0.100000,-0.100000)"
fill="#000000" stroke="none">
<path d="M813 945 c2 -5 18 -9 36 -9 17 1 31 -1 31 -5 0 -3 18 -5 40 -3 24 3
40 9 40 17 0 10 -19 13 -75 12 -47 -1 -74 -5 -72 -12z"/>
<path d="M615 940 c-3 -6 1 -7 9 -4 18 7 21 14 7 14 -6 0 -13 -4 -16 -10z"/>
<path d="M690 945 c0 -7 30 -13 34 -7 3 4 -4 9 -15 9 -10 1 -19 0 -19 -2z"/>
<path d="M745 941 c-3 -6 -3 -11 2 -11 4 0 1 -5 -7 -10 -10 -7 -11 -10 -2 -10
7 0 15 7 19 15 7 19 -2 31 -12 16z"/>
<path d="M771 947 c2 -1 12 -9 22 -16 15 -12 17 -12 11 3 -3 9 -13 16 -22 16
-8 0 -13 -1 -11 -3z"/>
<path d="M496 908 c3 -4 -18 -22 -46 -39 l-52 -32 6 -56 c3 -31 8 -83 12 -116
3 -33 12 -67 19 -75 12 -13 5 -15 -58 -16 -69 0 -75 -2 -127 -42 -30 -23 -62
-42 -71 -42 -29 0 -99 -58 -99 -82 0 -17 3 -19 12 -10 7 7 20 12 29 12 32 0
33 -22 4 -48 -18 -15 -29 -35 -30 -51 0 -22 -5 -26 -31 -29 -30 -3 -32 -1 -37
35 -20 132 -25 127 -26 -26 -1 -142 0 -153 17 -146 31 12 36 10 40 -12 2 -17
-3 -23 -27 -28 -29 -6 -31 -9 -31 -56 l0 -49 255 0 255 1 0 25 c0 26 7 29 30
13 12 -9 12 -10 -3 -5 -14 4 -18 1 -15 -12 3 -15 18 -17 117 -20 141 -3 186 7
189 44 2 23 36 63 55 64 18 0 4 -40 -20 -60 l-28 -21 33 18 c26 14 32 23 31
48 -1 16 1 45 5 63 4 18 5 51 1 73 l-7 41 -23 -22 c-15 -14 -25 -18 -30 -11
-3 6 -10 9 -14 7 -4 -3 -7 10 -8 27 -1 18 1 24 4 14 3 -13 11 -16 26 -12 21 6
21 5 4 -9 -10 -8 -14 -17 -9 -20 21 -13 31 23 29 100 -2 67 -4 78 -15 67 -19
-18 -30 -16 -42 7 -7 14 -7 20 0 20 5 0 10 -5 10 -11 0 -5 5 -7 11 -3 6 3 8
17 4 31 -5 20 -3 24 9 20 11 -5 16 0 16 13 0 14 -11 22 -40 30 -22 6 -38 15
-35 20 4 6 -1 10 -9 10 -12 0 -14 7 -9 30 4 25 2 30 -13 31 -16 0 -16 2 4 9
12 5 22 18 22 29 0 18 -16 131 -26 188 -3 14 -16 25 -41 34 -21 6 -43 16 -50
21 -7 5 -16 7 -22 4 -5 -3 -22 1 -37 9 -29 16 -127 18 -118 3z m207 -89 c3
-10 1 -19 -4 -19 -5 0 -9 8 -9 17 0 9 -8 26 -17 37 -18 21 -18 21 4 3 11 -10
23 -27 26 -38z m-255 -61 c17 -17 15 -48 -2 -48 -8 0 -18 5 -22 12 -4 7 -3 8
4 4 7 -4 12 -1 12 9 0 11 -5 15 -14 12 -10 -4 -13 -1 -9 9 6 17 15 18 31 2z
m102 -27 c14 -27 13 -41 -5 -41 -17 0 -34 29 -28 48 7 18 21 15 33 -7z m180 1
c0 -5 -7 -9 -15 -9 -8 0 -12 4 -9 9 3 4 9 8 15 8 5 0 9 -4 9 -8z m0 -42 c-6
-11 -13 -20 -16 -20 -2 0 0 9 6 20 6 11 13 20 16 20 2 0 0 -9 -6 -20z m20 -14
c0 -2 -8 -10 -17 -17 -16 -13 -17 -12 -4 4 13 16 21 21 21 13z m-75 -26 c3 -5
1 -10 -4 -10 -6 0 -11 5 -11 10 0 6 2 10 4 10 3 0 8 -4 11 -10z m-71 -79 c9
-11 8 -13 -4 -9 -8 2 -16 18 -17 34 -1 18 0 22 4 9 3 -11 10 -26 17 -34z
m-293 -68 c-12 -20 -14 -14 -5 12 4 9 9 14 11 11 3 -2 0 -13 -6 -23z m-84 -35
c-3 -8 -6 -5 -6 6 -1 11 2 17 5 13 3 -3 4 -12 1 -19z m158 -65 c4 -27 8 -57
10 -69 2 -11 6 -50 10 -86 l7 -65 -34 -21 -33 -21 -6 47 c-4 27 -16 70 -28 96
-16 38 -18 52 -10 63 10 11 8 12 -6 7 -13 -5 -16 -4 -11 4 4 7 1 12 -6 13 -10
0 -10 2 0 6 6 2 12 10 12 16 0 20 43 57 66 57 20 0 24 -7 29 -47z m-174 24
c-6 -8 -7 -18 -3 -22 4 -5 1 -5 -6 -1 -10 6 -10 11 -1 22 6 8 14 14 16 14 3 0
0 -6 -6 -13z m365 -32 c19 -29 10 -65 -16 -65 -23 0 -43 57 -27 78 14 18 25
15 43 -13z m-126 -28 c0 -16 -18 3 -23 25 -6 22 -5 22 8 4 8 -11 15 -24 15
-29z m88 -51 c16 -18 16 -19 -1 -13 -10 4 -24 7 -31 7 -8 0 -11 12 -8 37 5 36
5 37 14 13 5 -13 17 -33 26 -44z m82 4 c5 -38 3 -53 -8 -63 -13 -10 -14 -8 -8
11 6 17 3 22 -10 22 -13 0 -14 3 -5 14 7 8 13 28 13 45 1 44 11 29 18 -29z
m-397 3 c-4 -22 -9 -30 -19 -26 -8 3 -21 0 -29 -7 -12 -10 -15 -9 -15 8 0 13
9 22 25 26 14 4 28 13 32 22 8 23 11 13 6 -23z m637 -24 c0 -6 -4 -7 -10 -4
-5 3 -10 11 -10 16 0 6 5 7 10 4 6 -3 10 -11 10 -16z m-355 -29 c3 -5 1 -10
-4 -10 -6 0 -11 5 -11 10 0 6 2 10 4 10 3 0 8 -4 11 -10z m85 -36 c0 -8 -4
-12 -10 -9 -5 3 -10 10 -10 16 0 5 5 9 10 9 6 0 10 -7 10 -16z m239 -13 c-6
-2 -18 4 -27 13 -15 15 -15 15 10 4 15 -7 23 -15 17 -17z m-299 15 c0 -3 -4
-8 -10 -11 -5 -3 -10 -1 -10 4 0 6 5 11 10 11 6 0 10 -2 10 -4z m357 -78 c-2
-13 -4 -5 -4 17 -1 22 1 32 4 23 2 -10 2 -28 0 -40z m-30 -14 c3 -8 -1 -22 -9
-30 -13 -13 -16 -13 -27 0 -10 12 -9 14 10 9 16 -4 20 -2 17 8 -3 8 -11 13
-17 11 -7 -1 -10 2 -6 8 9 15 25 12 32 -6z m-410 -46 c-3 -8 -6 -5 -6 6 -1 11
2 17 5 13 3 -3 4 -12 1 -19z m355 -55 c-15 -25 -21 -27 -37 -15 -12 9 -35 48
-35 61 0 19 45 16 65 -4 19 -18 19 -22 7 -42z m-155 15 c-3 -8 -6 -5 -6 6 -1
11 2 17 5 13 3 -3 4 -12 1 -19z m-210 -30 c-3 -8 -6 -5 -6 6 -1 11 2 17 5 13
3 -3 4 -12 1 -19z m143 2 c0 -5 -4 -10 -10 -10 -5 0 -10 5 -10 10 0 6 5 10 10
10 6 0 10 -4 10 -10z m43 -7 c-7 -2 -19 -2 -25 0 -7 3 -2 5 12 5 14 0 19 -2
13 -5z"/>
<path d="M520 726 c0 -2 7 -9 15 -16 13 -11 14 -10 9 4 -5 14 -24 23 -24 12z"/>
<path d="M330 406 c0 -2 9 -6 20 -9 11 -3 20 -1 20 4 0 5 -9 9 -20 9 -11 0
-20 -2 -20 -4z"/>
<path d="M550 375 c-8 -9 -8 -15 -2 -15 12 0 26 19 19 26 -2 2 -10 -2 -17 -11z"/>
<path d="M767 898 c-9 -31 -2 -33 11 -3 6 14 8 25 3 25 -5 0 -11 -10 -14 -22z"/>
<path d="M850 905 c10 -12 10 -15 -3 -15 -8 0 -17 5 -19 10 -4 14 -48 -18 -48
-36 0 -10 12 -14 40 -14 22 0 40 4 40 9 0 6 -16 7 -36 4 -29 -5 -36 -3 -32 8
3 8 13 15 24 17 16 3 17 1 4 -8 -12 -9 -10 -10 10 -4 14 4 31 9 38 11 7 3 10
0 7 -9 -3 -8 1 -21 9 -28 18 -14 46 -7 46 12 0 9 -3 9 -11 1 -6 -6 -18 -9 -25
-6 -23 9 -16 19 16 21 17 1 30 -3 30 -8 0 -6 5 -8 10 -5 6 3 10 15 10 26 0 11
-4 17 -10 14 -5 -3 -10 0 -10 7 0 9 -3 9 -10 -2 -8 -12 -12 -13 -19 -2 -6 11
-10 10 -15 -4 -6 -15 -8 -16 -24 0 -23 20 -39 21 -22 1z"/>
<path d="M128 843 c7 -3 16 -2 19 1 4 3 -2 6 -13 5 -11 0 -14 -3 -6 -6z"/>
<path d="M170 840 c0 -5 5 -10 10 -10 6 0 10 5 10 10 0 6 -4 10 -10 10 -5 0
-10 -4 -10 -10z"/>
<path d="M936 834 c-9 -24 -7 -27 9 -10 17 17 19 26 6 26 -5 0 -12 -7 -15 -16z"/>
<path d="M910 779 c0 -7 -10 -9 -25 -5 -19 5 -23 3 -19 -8 4 -11 12 -12 27 -7
12 5 32 5 45 0 13 -5 22 -5 22 1 0 6 -7 10 -15 10 -8 0 -15 5 -15 10 0 6 -4
10 -10 10 -5 0 -10 -5 -10 -11z"/>
<path d="M93 683 c9 -2 23 -2 30 0 6 3 -1 5 -18 5 -16 0 -22 -2 -12 -5z"/>
<path d="M800 563 c8 -3 23 -12 33 -21 21 -19 23 -9 1 12 -8 9 -23 16 -32 15
-14 0 -14 -2 -2 -6z"/>
<path d="M60 450 c0 -5 5 -10 11 -10 5 0 7 5 4 10 -3 6 -8 10 -11 10 -2 0 -4
-4 -4 -10z"/>
<path d="M855 80 c-3 -5 -2 -10 4 -10 5 0 13 5 16 10 3 6 2 10 -4 10 -5 0 -13
-4 -16 -10z"/>
</g>
</svg>
